<svg id="Layer_1" data-name="Layer 1" xmlns="http://www.w3.org/2000/svg" viewBox="0 0 371.71 675.58"><defs><style>.cls-1{fill:#2e3192;}</style></defs><polygon class="cls-1" points="63.28 675.58 66.07 596.81 67.8 548.02 69.38 503.19 199.68 368.04 150.12 320.26 182.13 287.07 253.26 355.65 102.3 512.23 100.58 561.02 297.79 356.47 181.33 244.19 182.5 173.27 371.71 355.68 63.28 675.58"/><polygon class="cls-1" points="97.01 162.89 31.65 99.88 31 141.39 66.27 175.39 65.54 219.96 56.16 229.7 0 175.56 0.99 112.46 1.64 70.94 2.75 0 152.49 144.37 151.91 163.93 150.32 214.29 149.03 255.18 148.13 284.6 19.4 418.11 23.7 296.9 96.02 221.89 96.3 204.35 96.58 187.78 97.01 162.89"/></svg>
