<svg id="Layer_1" data-name="Layer 1" xmlns="http://www.w3.org/2000/svg" viewBox="0 0 439.9 155.38"><defs><style>.cls-1,.cls-2{fill:#2e3192;}.cls-2{font-size:68.71px;font-family:TrajanPro-Bold, Trajan Pro;font-weight:700;}.cls-3{font-size:12.3px;font-family:TrajanPro-Regular, Trajan Pro;}.cls-4{letter-spacing:0.02em;}.cls-5{letter-spacing:-0.02em;}.cls-6{letter-spacing:-0.03em;}</style></defs><polygon class="cls-1" points="14.55 155.38 15.2 137.27 15.59 126.05 15.96 115.73 45.93 84.65 34.53 73.66 41.89 66.03 58.25 81.8 23.53 117.81 23.13 129.03 68.49 81.99 41.71 56.16 41.98 39.85 85.49 81.81 14.55 155.38"/><polygon class="cls-1" points="22.31 37.47 7.28 22.97 7.13 32.52 15.24 40.34 15.07 50.59 12.92 52.83 0 40.38 0.23 25.86 0.38 16.32 0.63 0 35.07 33.2 34.94 37.7 34.57 49.29 34.28 58.69 34.07 65.46 4.46 96.17 5.45 68.29 22.09 51.03 22.15 47 22.21 43.19 22.31 37.47"/><text class="cls-2" transform="translate(108.93 96.17)">FRAOGO</text><text class="cls-3" transform="translate(113.26 116.82)">P<tspan class="cls-4" x="7.9" y="0">R</tspan><tspan x="17.36" y="0">OCUREMENT. </tspan><tspan class="cls-5" x="113.17" y="0">L</tspan><tspan x="120.16" y="0">OGISTICS. VENDOR SE</tspan><tspan class="cls-6" x="270.97" y="0">R</tspan><tspan x="279.94" y="0">VICES</tspan></text></svg>
